<svg width="20" height="20" viewBox="0 0 20 20" fill="none" xmlns="http://www.w3.org/2000/svg">
<path fill-rule="evenodd" clip-rule="evenodd" d="M19.1906 8.83741C19.3385 8.86719 19.4776 8.92981 19.598 9.02063C19.7179 9.11206 19.8156 9.22925 19.884 9.36365C19.9525 9.49793 19.9897 9.646 19.993 9.79664C19.997 9.85962 20.0001 9.90772 20.0001 9.95667C20.0001 15.4707 15.514 19.9567 10.0001 19.9567C4.48604 19.9567 7.68201e-05 15.4707 7.68201e-05 9.95667C-0.0096888 7.46936 0.911942 5.06861 2.58345 3.22681C4.25508 1.38489 6.5555 0.235478 9.03206 0.00464285C9.19124 -0.010738 9.35188 0.0122112 9.50032 0.0717815C9.5721 0.10059 9.64009 0.137455 9.70296 0.181523C9.7701 0.228642 9.83138 0.284062 9.88533 0.346562C9.95552 0.427861 10.012 0.519657 10.0528 0.61829C10.0581 0.630986 10.0631 0.643925 10.0678 0.656865C10.0733 0.672001 10.0786 0.68726 10.0833 0.702763C10.0899 0.724125 10.0958 0.745732 10.101 0.767582C10.1383 0.923222 10.1375 1.08545 10.0991 1.2406C10.0311 1.5127 10.0001 1.73963 10.0001 1.95667C10.0001 3.6106 11.346 4.95667 13.0001 4.95667C13.2572 4.95215 13.5127 4.91419 13.7601 4.84363C13.9112 4.80335 14.0698 4.7992 14.2229 4.83155C14.3759 4.86377 14.5194 4.93164 14.6414 5.02955C14.7635 5.12745 14.8608 5.25269 14.9255 5.39515C14.9697 5.49231 14.9979 5.59583 15.0092 5.70142C15.0116 5.72303 15.0131 5.74476 15.014 5.76648C15.0152 5.79419 15.0152 5.8219 15.014 5.84961C15.0135 5.86805 15.01 5.90625 15.0062 5.94288C15.0029 5.974 14.9993 6.00403 14.997 6.01966C15.0001 7.6106 16.346 8.95667 18.0001 8.95667C18.2517 8.95264 18.5017 8.91639 18.744 8.84864C18.8902 8.81153 19.0428 8.80762 19.1906 8.83741ZM7.99995 6.5C7.99995 7.32837 7.32832 8 6.49995 8C5.67159 8 4.99995 7.32837 4.99995 6.5C4.99995 5.67164 5.67159 5 6.49995 5C7.32832 5 7.99995 5.67164 7.99995 6.5ZM5.49995 12C6.32832 12 6.99995 11.3284 6.99995 10.5C6.99995 9.67164 6.32832 9 5.49995 9C4.67159 9 3.99995 9.67164 3.99995 10.5C3.99995 11.3284 4.67159 12 5.49995 12ZM9.99995 14.5C9.99995 15.3284 9.32832 16 8.49995 16C7.67159 16 6.99995 15.3284 6.99995 14.5C6.99995 13.6716 7.67159 13 8.49995 13C9.32832 13 9.99995 13.6716 9.99995 14.5ZM11.5 11C12.3283 11 13 10.3284 13 9.5C13 8.67164 12.3283 8 11.5 8C10.6716 8 9.99995 8.67164 9.99995 9.5C9.99995 10.3284 10.6716 11 11.5 11ZM15 13.5C15 14.3284 14.3283 15 13.5 15C12.6716 15 12 14.3284 12 13.5C12 12.6716 12.6716 12 13.5 12C14.3283 12 15 12.6716 15 13.5Z" fill="#A7AAAD"/>
</svg>
